# xmcd
#
# Track frame offsets:
# 150
# 16705
# 29408
# 46252
# 63558
# 82488
# 104221
# 116435
# 145167
# 157443
# 177621
#
# Disc length: 2653 seconds
#
# Revision: 1
# Processed by: cddbd v1.5.2PL0 Copyright (c) Steve Scherf et al.
# Submitted via: Easy CD Ripper 2.3.10
#
DISCID=a40a5b0b
DTITLE=David Kitt - Not Fade Away
DYEAR=2006
DGENRE=Blues
TTITLE0=One Clear Way - David Kitt
TTITLE1=Grey Day - David Kitt
TTITLE2=Up To You - David Kitt
TTITLE3=Sleep - David Kitt
TTITLE4=I Know The Reason - David Kitt
TTITLE5=Nothing Else - David Kitt
TTITLE6=Wish and I Won't Stop - David Kitt
TTITLE7=Guilty Prayers, Pointless Ends - David Kitt
TTITLE8=Say No More - David Kitt
TTITLE9=Don't Fuck With Me - David Kitt
TTITLE10=With You - David Kitt
EXTD=
EXTT0=
EXTT1=
EXTT2=
EXTT3=
EXTT4=
EXTT5=
EXTT6=
EXTT7=
EXTT8=
EXTT9=
EXTT10=
PLAYORDER=
